# Blender v2.79 (sub 0) OBJ File: 'arrow.blend'
# www.blender.org
mtllib arrow.mtl
o Cone
v 0.000000 0.760000 -0.040000
v 0.007804 0.760000 -0.039231
v 0.015307 0.760000 -0.036955
v 0.022223 0.760000 -0.033259
v 0.028284 0.760000 -0.028284
v 0.033259 0.760000 -0.022223
v 0.036955 0.760000 -0.015307
v 0.039231 0.760000 -0.007804
v 0.040000 0.760000 -0.000000
v 0.039231 0.760000 0.007804
v 0.036955 0.760000 0.015307
v 0.033259 0.760000 0.022223
v 0.028284 0.760000 0.028284
v 0.022223 0.760000 0.033259
v 0.015307 0.760000 0.036955
v 0.007804 0.760000 0.039231
v -0.000000 0.760000 0.040000
v -0.007804 0.760000 0.039231
v -0.015307 0.760000 0.036955
v -0.022223 0.760000 0.033259
v -0.028284 0.760000 0.028284
v -0.033259 0.760000 0.022223
v -0.036955 0.760000 0.015307
v 0.000000 0.840000 0.000000
v -0.039231 0.760000 0.007804
v -0.040000 0.760000 -0.000000
v -0.039231 0.760000 -0.007804
v -0.036955 0.760000 -0.015307
v -0.033259 0.760000 -0.022223
v -0.028284 0.760000 -0.028284
v -0.022223 0.760000 -0.033259
v -0.015307 0.760000 -0.036955
v -0.007804 0.760000 -0.039231
v 0.000000 -0.000000 -0.020000
v 0.000000 0.800000 -0.020000
v 0.003902 -0.000000 -0.019616
v 0.003902 0.800000 -0.019616
v 0.007654 -0.000000 -0.018478
v 0.007654 0.800000 -0.018478
v 0.011111 -0.000000 -0.016629
v 0.011111 0.800000 -0.016629
v 0.014142 -0.000000 -0.014142
v 0.014142 0.800000 -0.014142
v 0.016629 -0.000000 -0.011111
v 0.016629 0.800000 -0.011111
v 0.018478 -0.000000 -0.007654
v 0.018478 0.800000 -0.007654
v 0.019616 -0.000000 -0.003902
v 0.019616 0.800000 -0.003902
v 0.020000 -0.000000 -0.000000
v 0.020000 0.800000 -0.000000
v 0.019616 -0.000000 0.003902
v 0.019616 0.800000 0.003902
v 0.018478 -0.000000 0.007654
v 0.018478 0.800000 0.007654
v 0.016629 -0.000000 0.011111
v 0.016629 0.800000 0.011111
v 0.014142 -0.000000 0.014142
v 0.014142 0.800000 0.014142
v 0.011111 -0.000000 0.016629
v 0.011111 0.800000 0.016629
v 0.007654 -0.000000 0.018478
v 0.007654 0.800000 0.018478
v 0.003902 -0.000000 0.019616
v 0.003902 0.800000 0.019616
v -0.000000 -0.000000 0.020000
v -0.000000 0.800000 0.020000
v -0.003902 -0.000000 0.019616
v -0.003902 0.800000 0.019616
v -0.007654 -0.000000 0.018478
v -0.007654 0.800000 0.018478
v -0.011111 -0.000000 0.016629
v -0.011111 0.800000 0.016629
v -0.014142 -0.000000 0.014142
v -0.014142 0.800000 0.014142
v -0.016629 -0.000000 0.011111
v -0.016629 0.800000 0.011111
v -0.018478 -0.000000 0.007654
v -0.018478 0.800000 0.007654
v -0.019616 -0.000000 0.003902
v -0.019616 0.800000 0.003902
v -0.020000 -0.000000 -0.000000
v -0.020000 0.800000 -0.000000
v -0.019616 -0.000000 -0.003902
v -0.019616 0.800000 -0.003902
v -0.018478 -0.000000 -0.007654
v -0.018478 0.800000 -0.007654
v -0.016629 -0.000000 -0.011111
v -0.016629 0.800000 -0.011111
v -0.014142 -0.000000 -0.014142
v -0.014142 0.800000 -0.014142
v -0.011111 -0.000000 -0.016629
v -0.011111 0.800000 -0.016629
v -0.007654 -0.000000 -0.018478
v -0.007654 0.800000 -0.018478
v -0.003902 -0.000000 -0.019616
v -0.003902 0.800000 -0.019616
vn 0.0878 0.4455 -0.8910
vn 0.2599 0.4455 -0.8567
vn 0.4220 0.4455 -0.7896
vn 0.5680 0.4455 -0.6921
vn 0.6921 0.4455 -0.5680
vn 0.7896 0.4455 -0.4220
vn 0.8567 0.4455 -0.2599
vn 0.8910 0.4455 -0.0878
vn 0.8910 0.4455 0.0878
vn 0.8567 0.4455 0.2599
vn 0.7896 0.4455 0.4220
vn 0.6921 0.4455 0.5680
vn 0.5680 0.4455 0.6921
vn 0.4220 0.4455 0.7896
vn 0.2599 0.4455 0.8567
vn 0.0878 0.4455 0.8910
vn -0.0878 0.4455 0.8910
vn -0.2599 0.4455 0.8567
vn -0.4220 0.4455 0.7896
vn -0.5680 0.4455 0.6921
vn -0.6921 0.4455 0.5680
vn -0.7896 0.4455 0.4220
vn -0.8567 0.4455 0.2599
vn -0.8910 0.4455 0.0878
vn -0.8910 0.4455 -0.0878
vn -0.8567 0.4455 -0.2599
vn -0.7896 0.4455 -0.4220
vn -0.6921 0.4455 -0.5680
vn -0.5680 0.4455 -0.6921
vn -0.4220 0.4455 -0.7896
vn -0.2599 0.4455 -0.8567
vn -0.0878 0.4455 -0.8910
vn 0.0000 -1.0000 -0.0000
vn 0.0980 0.0000 -0.9952
vn 0.2903 0.0000 -0.9569
vn 0.4714 0.0000 -0.8819
vn 0.6344 0.0000 -0.7730
vn 0.7730 0.0000 -0.6344
vn 0.8819 0.0000 -0.4714
vn 0.9569 0.0000 -0.2903
vn 0.9952 0.0000 -0.0980
vn 0.9952 0.0000 0.0980
vn 0.9569 0.0000 0.2903
vn 0.8819 0.0000 0.4714
vn 0.7730 0.0000 0.6344
vn 0.6344 0.0000 0.7730
vn 0.4714 0.0000 0.8819
vn 0.2903 0.0000 0.9569
vn 0.0980 0.0000 0.9952
vn -0.0980 0.0000 0.9952
vn -0.2903 0.0000 0.9569
vn -0.4714 0.0000 0.8819
vn -0.6344 0.0000 0.7730
vn -0.7730 0.0000 0.6344
vn -0.8819 0.0000 0.4714
vn -0.9569 0.0000 0.2903
vn -0.9952 0.0000 0.0980
vn -0.9952 0.0000 -0.0980
vn -0.9569 0.0000 -0.2903
vn -0.8819 0.0000 -0.4714
vn -0.7730 0.0000 -0.6344
vn -0.6344 0.0000 -0.7730
vn -0.4714 0.0000 -0.8819
vn 0.0000 1.0000 0.0000
vn -0.2903 0.0000 -0.9569
vn -0.0980 0.0000 -0.9952
usemtl None
s off
f 1//1 24//1 2//1
f 2//2 24//2 3//2
f 3//3 24//3 4//3
f 4//4 24//4 5//4
f 5//5 24//5 6//5
f 6//6 24//6 7//6
f 7//7 24//7 8//7
f 8//8 24//8 9//8
f 9//9 24//9 10//9
f 10//10 24//10 11//10
f 11//11 24//11 12//11
f 12//12 24//12 13//12
f 13//13 24//13 14//13
f 14//14 24//14 15//14
f 15//15 24//15 16//15
f 16//16 24//16 17//16
f 17//17 24//17 18//17
f 18//18 24//18 19//18
f 19//19 24//19 20//19
f 20//20 24//20 21//20
f 21//21 24//21 22//21
f 22//22 24//22 23//22
f 23//23 24//23 25//23
f 25//24 24//24 26//24
f 26//25 24//25 27//25
f 27//26 24//26 28//26
f 28//27 24//27 29//27
f 29//28 24//28 30//28
f 30//29 24//29 31//29
f 31//30 24//30 32//30
f 32//31 24//31 33//31
f 33//32 24//32 1//32
f 1//33 2//33 3//33 4//33 5//33 6//33 7//33 8//33 9//33 10//33 11//33 12//33 13//33 14//33 15//33 16//33 17//33 18//33 19//33 20//33 21//33 22//33 23//33 25//33 26//33 27//33 28//33 29//33 30//33 31//33 32//33 33//33
f 34//34 35//34 37//34 36//34
f 36//35 37//35 39//35 38//35
f 38//36 39//36 41//36 40//36
f 40//37 41//37 43//37 42//37
f 42//38 43//38 45//38 44//38
f 44//39 45//39 47//39 46//39
f 46//40 47//40 49//40 48//40
f 48//41 49//41 51//41 50//41
f 50//42 51//42 53//42 52//42
f 52//43 53//43 55//43 54//43
f 54//44 55//44 57//44 56//44
f 56//45 57//45 59//45 58//45
f 58//46 59//46 61//46 60//46
f 60//47 61//47 63//47 62//47
f 62//48 63//48 65//48 64//48
f 64//49 65//49 67//49 66//49
f 66//50 67//50 69//50 68//50
f 68//51 69//51 71//51 70//51
f 70//52 71//52 73//52 72//52
f 72//53 73//53 75//53 74//53
f 74//54 75//54 77//54 76//54
f 76//55 77//55 79//55 78//55
f 78//56 79//56 81//56 80//56
f 80//57 81//57 83//57 82//57
f 82//58 83//58 85//58 84//58
f 84//59 85//59 87//59 86//59
f 86//60 87//60 89//60 88//60
f 88//61 89//61 91//61 90//61
f 90//62 91//62 93//62 92//62
f 92//63 93//63 95//63 94//63
f 37//64 35//64 97//64 95//64 93//64 91//64 89//64 87//64 85//64 83//64 81//64 79//64 77//64 75//64 73//64 71//64 69//64 67//64 65//64 63//64 61//64 59//64 57//64 55//64 53//64 51//64 49//64 47//64 45//64 43//64 41//64 39//64
f 94//65 95//65 97//65 96//65
f 96//66 97//66 35//66 34//66
f 34//33 36//33 38//33 40//33 42//33 44//33 46//33 48//33 50//33 52//33 54//33 56//33 58//33 60//33 62//33 64//33 66//33 68//33 70//33 72//33 74//33 76//33 78//33 80//33 82//33 84//33 86//33 88//33 90//33 92//33 94//33 96//33
